<svg width="57" height="20" viewBox="0 0 57 20" fill="none" xmlns="http://www.w3.org/2000/svg">
<path d="M27.4854 15H29.3311L31.9219 6.96777H32.4482V5.13574H30.9854L27.4854 15ZM29.249 12.4502H34.6904L34.2324 11.0898H29.707L29.249 12.4502ZM34.6289 15H36.4746L32.9678 5.13574H32.0381V6.96777L34.6289 15ZM38.9118 15H42.2477C42.9495 15 43.5534 14.8883 44.0592 14.665C44.5651 14.4372 44.9524 14.1136 45.2213 13.6943C45.4948 13.2751 45.6315 12.7783 45.6315 12.2041V12.1904C45.6315 11.7666 45.5358 11.3838 45.3444 11.042C45.1575 10.7002 44.8955 10.4245 44.5582 10.2148C44.2256 10.0007 43.8382 9.87305 43.3961 9.83203V9.70898C43.7288 9.6543 44.025 9.52669 44.2848 9.32617C44.5491 9.12565 44.7588 8.875 44.9137 8.57422C45.0732 8.27344 45.153 7.94987 45.153 7.60352V7.58984C45.153 7.08398 45.0322 6.64876 44.7907 6.28418C44.5491 5.91504 44.2051 5.63249 43.7584 5.43652C43.3118 5.236 42.7741 5.13574 42.1452 5.13574H38.9118V6.50293H41.7213C42.2545 6.50293 42.6692 6.62598 42.9655 6.87207C43.2617 7.11816 43.4098 7.45996 43.4098 7.89746V7.91113C43.4098 8.35775 43.2457 8.69954 42.9176 8.93652C42.594 9.1735 42.1201 9.29199 41.4957 9.29199H38.9118V10.543H41.7692C42.2204 10.543 42.5986 10.5999 42.9039 10.7139C43.2138 10.8278 43.4463 10.9987 43.6012 11.2266C43.7562 11.4544 43.8336 11.7347 43.8336 12.0674V12.0811C43.8336 12.5824 43.665 12.9674 43.3278 13.2363C42.9905 13.5007 42.4961 13.6328 41.8444 13.6328H38.9118V15ZM38.0299 15H39.7936V5.13574H38.0299V15ZM51.6712 15.2461C52.6328 15.2461 53.4622 15.0365 54.1595 14.6172C54.8567 14.1934 55.3922 13.5941 55.7659 12.8193C56.1442 12.0446 56.3333 11.1286 56.3333 10.0713V10.0576C56.3333 9.00033 56.1442 8.08431 55.7659 7.30957C55.3876 6.53483 54.8499 5.93783 54.1526 5.51855C53.4554 5.09928 52.6282 4.88965 51.6712 4.88965C50.7187 4.88965 49.8915 5.09928 49.1897 5.51855C48.4925 5.93783 47.9524 6.53483 47.5696 7.30957C47.1914 8.07975 47.0022 8.99577 47.0022 10.0576V10.0713C47.0022 11.1286 47.1914 12.0446 47.5696 12.8193C47.9479 13.5941 48.4833 14.1934 49.1761 14.6172C49.8733 15.0365 50.705 15.2461 51.6712 15.2461ZM51.6712 13.7217C51.0787 13.7217 50.566 13.5713 50.1331 13.2705C49.7047 12.9697 49.3743 12.5459 49.1419 11.999C48.914 11.4521 48.8001 10.8096 48.8001 10.0713V10.0576C48.8001 9.31478 48.9163 8.6722 49.1487 8.12988C49.3857 7.58301 49.7184 7.16146 50.1468 6.86523C50.5797 6.56445 51.0878 6.41406 51.6712 6.41406C52.2591 6.41406 52.7672 6.56445 53.1956 6.86523C53.624 7.16146 53.9544 7.58301 54.1868 8.12988C54.4238 8.6722 54.5423 9.31478 54.5423 10.0576V10.0713C54.5423 10.8096 54.4238 11.4521 54.1868 11.999C53.9544 12.5459 53.624 12.9697 53.1956 13.2705C52.7672 13.5713 52.2591 13.7217 51.6712 13.7217Z" fill="black"/>
<rect width="20" height="20" rx="10" fill="#ECC053"/>
</svg>
